<?xml version="1.0" encoding="UTF-8" standalone="no"?>
<!DOCTYPE svg PUBLIC "-//W3C//DTD SVG 1.1//EN" "http://www.w3.org/Graphics/SVG/1.1/DTD/svg11.dtd">
<svg width="100%" height="100%" viewBox="0 0 105 100" version="1.1" xmlns="http://www.w3.org/2000/svg" xmlns:xlink="http://www.w3.org/1999/xlink" xml:space="preserve" xmlns:serif="http://www.serif.com/" style="fill-rule:evenodd;clip-rule:evenodd;stroke-miterlimit:10;">
    <g transform="matrix(1,0,0,1,-174.45,-115.126)">
        <g id="OBJECTS">
            <g transform="matrix(-0.707107,-0.707107,-0.707107,0.707107,260.81,132.995)">
                <rect x="-33.945" y="14.06" width="67.888" height="67.888" style="fill:rgb(210,0,51);"/>
            </g>
            <g transform="matrix(1,0,0,1,179.475,140.719)">
                <path d="M0,0L40.917,0" style="fill:none;fill-rule:nonzero;stroke:rgb(145,113,123);stroke-width:1px;"/>
            </g>
            <g transform="matrix(1,0,0,1,233.341,193.16)">
                <path d="M0,0L40.917,0" style="fill:none;fill-rule:nonzero;stroke:rgb(145,113,123);stroke-width:1px;"/>
            </g>
            <g transform="matrix(0.707107,0.707107,-0.707107,0.707107,111.804,-78.1416)">
                <g transform="matrix(5.82104,0,0,5.82104,222.735,54.2667)">
                    <path d="M0.09,0L0.09,-0.723L0.342,-0.723C0.43,-0.723 0.493,-0.708 0.531,-0.678C0.568,-0.649 0.587,-0.6 0.587,-0.531C0.587,-0.453 0.562,-0.392 0.511,-0.348C0.461,-0.305 0.391,-0.283 0.3,-0.283L0.238,-0.283L0.238,0L0.09,0ZM0.238,-0.382L0.267,-0.382C0.319,-0.382 0.359,-0.394 0.389,-0.418C0.419,-0.442 0.434,-0.475 0.434,-0.516C0.434,-0.588 0.388,-0.624 0.296,-0.624L0.238,-0.624L0.238,-0.382Z" style="fill:rgb(145,113,123);fill-rule:nonzero;"/>
                </g>
                <g transform="matrix(5.82104,0,0,5.82104,227.963,54.2667)">
                    <path d="M0.09,0L0.09,-0.723L0.361,-0.723C0.508,-0.723 0.581,-0.663 0.581,-0.543C0.581,-0.499 0.569,-0.458 0.544,-0.422C0.519,-0.385 0.485,-0.357 0.441,-0.337L0.677,0L0.494,0L0.315,-0.295L0.232,-0.295L0.232,0L0.09,0ZM0.232,-0.395L0.267,-0.395C0.376,-0.395 0.43,-0.439 0.43,-0.527C0.43,-0.591 0.382,-0.624 0.284,-0.624L0.232,-0.624L0.232,-0.395Z" style="fill:rgb(145,113,123);fill-rule:nonzero;"/>
                </g>
                <g transform="matrix(5.82104,0,0,5.82104,233.636,54.2667)">
                    <path d="M0.407,0.018C0.298,0.018 0.21,-0.016 0.144,-0.085C0.078,-0.154 0.045,-0.246 0.045,-0.361C0.045,-0.478 0.078,-0.57 0.145,-0.638C0.211,-0.707 0.3,-0.741 0.412,-0.741C0.524,-0.741 0.613,-0.707 0.679,-0.638C0.745,-0.57 0.778,-0.478 0.778,-0.363C0.778,-0.245 0.745,-0.152 0.679,-0.084C0.613,-0.016 0.522,0.018 0.407,0.018ZM0.409,-0.082C0.474,-0.082 0.525,-0.107 0.562,-0.157C0.6,-0.208 0.619,-0.277 0.619,-0.363C0.619,-0.447 0.6,-0.515 0.562,-0.565C0.524,-0.616 0.474,-0.642 0.412,-0.642C0.349,-0.642 0.299,-0.616 0.261,-0.565C0.224,-0.515 0.205,-0.447 0.205,-0.362C0.205,-0.278 0.224,-0.21 0.261,-0.158C0.299,-0.107 0.348,-0.082 0.409,-0.082Z" style="fill:rgb(145,113,123);fill-rule:nonzero;"/>
                </g>
                <g transform="matrix(5.82104,0,0,5.82104,240.085,54.2667)">
                    <path d="M0.09,0L0.09,-0.723L0.545,-0.723L0.545,-0.624L0.241,-0.624L0.241,-0.404L0.491,-0.404L0.491,-0.304L0.241,-0.304L0.241,0L0.09,0Z" style="fill:rgb(145,113,123);fill-rule:nonzero;"/>
                </g>
                <g transform="matrix(5.82104,0,0,5.82104,245.085,54.2667)">
                    <path d="M0.09,0L0.09,-0.723L0.542,-0.723L0.542,-0.624L0.241,-0.624L0.241,-0.422L0.488,-0.422L0.488,-0.325L0.241,-0.325L0.241,-0.103L0.565,-0.103L0.565,0L0.09,0Z" style="fill:rgb(145,113,123);fill-rule:nonzero;"/>
                </g>
                <g transform="matrix(5.82104,0,0,5.82104,250.239,54.2667)">
                    <path d="M0.05,-0.006L0.05,-0.13C0.128,-0.098 0.194,-0.082 0.25,-0.082C0.288,-0.082 0.319,-0.09 0.341,-0.107C0.363,-0.125 0.375,-0.148 0.375,-0.178C0.375,-0.201 0.368,-0.221 0.354,-0.237C0.34,-0.253 0.313,-0.272 0.274,-0.294L0.226,-0.321C0.161,-0.358 0.115,-0.393 0.088,-0.426C0.062,-0.459 0.048,-0.498 0.048,-0.543C0.048,-0.603 0.07,-0.65 0.114,-0.687C0.158,-0.723 0.216,-0.741 0.288,-0.741C0.345,-0.741 0.41,-0.732 0.482,-0.716L0.482,-0.6C0.409,-0.628 0.35,-0.642 0.307,-0.642C0.274,-0.642 0.247,-0.634 0.227,-0.619C0.207,-0.605 0.197,-0.585 0.197,-0.561C0.197,-0.541 0.204,-0.524 0.218,-0.509C0.232,-0.494 0.259,-0.475 0.297,-0.454L0.349,-0.425C0.419,-0.386 0.467,-0.35 0.493,-0.317C0.52,-0.284 0.533,-0.244 0.533,-0.197C0.533,-0.13 0.508,-0.077 0.458,-0.039C0.408,-0.001 0.34,0.018 0.252,0.018C0.194,0.018 0.127,0.01 0.05,-0.006Z" style="fill:rgb(145,113,123);fill-rule:nonzero;"/>
                </g>
                <g transform="matrix(5.82104,0,0,5.82104,255.221,54.2667)">
                    <path d="M0.05,-0.006L0.05,-0.13C0.128,-0.098 0.194,-0.082 0.25,-0.082C0.288,-0.082 0.319,-0.09 0.341,-0.107C0.363,-0.125 0.375,-0.148 0.375,-0.178C0.375,-0.201 0.368,-0.221 0.354,-0.237C0.34,-0.253 0.313,-0.272 0.274,-0.294L0.226,-0.321C0.161,-0.358 0.115,-0.393 0.088,-0.426C0.062,-0.459 0.048,-0.498 0.048,-0.543C0.048,-0.603 0.07,-0.65 0.114,-0.687C0.158,-0.723 0.216,-0.741 0.288,-0.741C0.345,-0.741 0.41,-0.732 0.482,-0.716L0.482,-0.6C0.409,-0.628 0.35,-0.642 0.307,-0.642C0.274,-0.642 0.247,-0.634 0.227,-0.619C0.207,-0.605 0.197,-0.585 0.197,-0.561C0.197,-0.541 0.204,-0.524 0.218,-0.509C0.232,-0.494 0.259,-0.475 0.297,-0.454L0.349,-0.425C0.419,-0.386 0.467,-0.35 0.493,-0.317C0.52,-0.284 0.533,-0.244 0.533,-0.197C0.533,-0.13 0.508,-0.077 0.458,-0.039C0.408,-0.001 0.34,0.018 0.252,0.018C0.194,0.018 0.127,0.01 0.05,-0.006Z" style="fill:rgb(145,113,123);fill-rule:nonzero;"/>
                </g>
                <g transform="matrix(5.82104,0,0,5.82104,260.204,54.2667)">
                    <rect x="0.09" y="-0.723" width="0.15" height="0.723" style="fill:rgb(145,113,123);fill-rule:nonzero;"/>
                </g>
                <g transform="matrix(5.82104,0,0,5.82104,263.791,54.2667)">
                    <path d="M0.407,0.018C0.298,0.018 0.21,-0.016 0.144,-0.085C0.078,-0.154 0.045,-0.246 0.045,-0.361C0.045,-0.478 0.078,-0.57 0.145,-0.638C0.211,-0.707 0.3,-0.741 0.412,-0.741C0.524,-0.741 0.613,-0.707 0.679,-0.638C0.745,-0.57 0.778,-0.478 0.778,-0.363C0.778,-0.245 0.745,-0.152 0.679,-0.084C0.613,-0.016 0.522,0.018 0.407,0.018ZM0.409,-0.082C0.474,-0.082 0.525,-0.107 0.562,-0.157C0.6,-0.208 0.619,-0.277 0.619,-0.363C0.619,-0.447 0.6,-0.515 0.562,-0.565C0.524,-0.616 0.474,-0.642 0.412,-0.642C0.349,-0.642 0.299,-0.616 0.261,-0.565C0.224,-0.515 0.205,-0.447 0.205,-0.362C0.205,-0.278 0.224,-0.21 0.261,-0.158C0.299,-0.107 0.348,-0.082 0.409,-0.082Z" style="fill:rgb(145,113,123);fill-rule:nonzero;"/>
                </g>
                <g transform="matrix(5.82104,0,0,5.82104,270.241,54.2667)">
                    <path d="M0.09,0L0.09,-0.723L0.223,-0.723L0.558,-0.229L0.558,-0.723L0.678,-0.723L0.678,0L0.543,0L0.211,-0.494L0.211,0L0.09,0Z" style="fill:rgb(145,113,123);fill-rule:nonzero;"/>
                </g>
                <g transform="matrix(5.82104,0,0,5.82104,276.372,54.2667)">
                    <path d="M0.011,0L0.292,-0.723L0.443,-0.723L0.724,0L0.57,0L0.495,-0.193L0.196,-0.193L0.121,0L0.011,0ZM0.233,-0.289L0.458,-0.289L0.345,-0.577L0.233,-0.289Z" style="fill:rgb(145,113,123);fill-rule:nonzero;"/>
                </g>
                <g transform="matrix(5.82104,0,0,5.82104,282.315,54.2667)">
                    <path d="M0.09,0L0.09,-0.723L0.241,-0.723L0.241,-0.103L0.566,-0.103L0.566,0L0.09,0Z" style="fill:rgb(145,113,123);fill-rule:nonzero;"/>
                </g>
            </g>
            <g transform="matrix(0.707107,0.707107,-0.707107,0.707107,116.926,-79.907)">
                <g transform="matrix(5.82104,0,0,5.82104,226.17,138.957)">
                    <path d="M0.672,-0.029C0.602,0.002 0.518,0.018 0.421,0.018C0.303,0.018 0.211,-0.015 0.145,-0.082C0.078,-0.149 0.045,-0.242 0.045,-0.361C0.045,-0.483 0.079,-0.577 0.145,-0.642C0.212,-0.708 0.307,-0.741 0.43,-0.741C0.509,-0.741 0.587,-0.731 0.665,-0.713L0.665,-0.595C0.577,-0.626 0.503,-0.642 0.443,-0.642C0.367,-0.642 0.308,-0.617 0.267,-0.569C0.226,-0.521 0.205,-0.452 0.205,-0.363C0.205,-0.276 0.227,-0.208 0.272,-0.159C0.316,-0.11 0.378,-0.086 0.457,-0.086C0.528,-0.086 0.6,-0.104 0.672,-0.14L0.672,-0.029Z" style="fill:rgb(145,113,123);fill-rule:nonzero;"/>
                </g>
                <g transform="matrix(5.82104,0,0,5.82104,231.839,138.957)">
                    <path d="M0.407,0.018C0.298,0.018 0.21,-0.016 0.144,-0.085C0.078,-0.154 0.045,-0.246 0.045,-0.361C0.045,-0.478 0.078,-0.57 0.145,-0.638C0.211,-0.707 0.3,-0.741 0.412,-0.741C0.524,-0.741 0.613,-0.707 0.679,-0.638C0.745,-0.57 0.778,-0.478 0.778,-0.363C0.778,-0.245 0.745,-0.152 0.679,-0.084C0.613,-0.016 0.522,0.018 0.407,0.018ZM0.409,-0.082C0.474,-0.082 0.525,-0.107 0.562,-0.157C0.6,-0.208 0.619,-0.277 0.619,-0.363C0.619,-0.447 0.6,-0.515 0.562,-0.565C0.524,-0.616 0.474,-0.642 0.412,-0.642C0.349,-0.642 0.299,-0.616 0.261,-0.565C0.224,-0.515 0.205,-0.447 0.205,-0.362C0.205,-0.278 0.224,-0.21 0.261,-0.158C0.299,-0.107 0.348,-0.082 0.409,-0.082Z" style="fill:rgb(145,113,123);fill-rule:nonzero;"/>
                </g>
                <g transform="matrix(5.82104,0,0,5.82104,238.153,138.957)">
                    <path d="M0.05,-0.006L0.05,-0.13C0.128,-0.098 0.194,-0.082 0.25,-0.082C0.288,-0.082 0.319,-0.09 0.341,-0.107C0.363,-0.125 0.375,-0.148 0.375,-0.178C0.375,-0.201 0.368,-0.221 0.354,-0.237C0.34,-0.253 0.313,-0.272 0.274,-0.294L0.226,-0.321C0.161,-0.358 0.115,-0.393 0.088,-0.426C0.062,-0.459 0.048,-0.498 0.048,-0.543C0.048,-0.603 0.07,-0.65 0.114,-0.687C0.158,-0.723 0.216,-0.741 0.288,-0.741C0.345,-0.741 0.41,-0.732 0.482,-0.716L0.482,-0.6C0.409,-0.628 0.35,-0.642 0.307,-0.642C0.274,-0.642 0.247,-0.634 0.227,-0.619C0.207,-0.605 0.197,-0.585 0.197,-0.561C0.197,-0.541 0.204,-0.524 0.218,-0.509C0.232,-0.494 0.259,-0.475 0.297,-0.454L0.349,-0.425C0.419,-0.386 0.467,-0.35 0.493,-0.317C0.52,-0.284 0.533,-0.244 0.533,-0.197C0.533,-0.13 0.508,-0.077 0.458,-0.039C0.408,-0.001 0.34,0.018 0.252,0.018C0.194,0.018 0.127,0.01 0.05,-0.006Z" style="fill:rgb(145,113,123);fill-rule:nonzero;"/>
                </g>
                <g transform="matrix(5.82104,0,0,5.82104,243.001,138.957)">
                    <path d="M0.09,0L0.09,-0.723L0.29,-0.723L0.463,-0.214L0.643,-0.723L0.817,-0.723L0.817,0L0.679,0L0.679,-0.545L0.502,-0.048L0.381,-0.048L0.208,-0.553L0.208,0L0.09,0Z" style="fill:rgb(145,113,123);fill-rule:nonzero;"/>
                </g>
                <g transform="matrix(5.82104,0,0,5.82104,249.807,138.957)">
                    <path d="M0.09,0L0.09,-0.723L0.542,-0.723L0.542,-0.624L0.241,-0.624L0.241,-0.422L0.488,-0.422L0.488,-0.325L0.241,-0.325L0.241,-0.103L0.565,-0.103L0.565,0L0.09,0Z" style="fill:rgb(145,113,123);fill-rule:nonzero;"/>
                </g>
                <g transform="matrix(5.82104,0,0,5.82104,254.825,138.957)">
                    <path d="M0.27,0L0.27,-0.624L0.011,-0.624L0.011,-0.723L0.679,-0.723L0.679,-0.624L0.42,-0.624L0.42,0L0.27,0Z" style="fill:rgb(145,113,123);fill-rule:nonzero;"/>
                </g>
                <g transform="matrix(5.82104,0,0,5.82104,260.363,138.957)">
                    <rect x="0.09" y="-0.723" width="0.15" height="0.723" style="fill:rgb(145,113,123);fill-rule:nonzero;"/>
                </g>
                <g transform="matrix(5.82104,0,0,5.82104,263.815,138.957)">
                    <path d="M0.672,-0.029C0.602,0.002 0.518,0.018 0.421,0.018C0.303,0.018 0.211,-0.015 0.145,-0.082C0.078,-0.149 0.045,-0.242 0.045,-0.361C0.045,-0.483 0.079,-0.577 0.145,-0.642C0.212,-0.708 0.307,-0.741 0.43,-0.741C0.509,-0.741 0.587,-0.731 0.665,-0.713L0.665,-0.595C0.577,-0.626 0.503,-0.642 0.443,-0.642C0.367,-0.642 0.308,-0.617 0.267,-0.569C0.226,-0.521 0.205,-0.452 0.205,-0.363C0.205,-0.276 0.227,-0.208 0.272,-0.159C0.316,-0.11 0.378,-0.086 0.457,-0.086C0.528,-0.086 0.6,-0.104 0.672,-0.14L0.672,-0.029Z" style="fill:rgb(145,113,123);fill-rule:nonzero;"/>
                </g>
                <g transform="matrix(5.82104,0,0,5.82104,269.484,138.957)">
                    <path d="M0.05,-0.006L0.05,-0.13C0.128,-0.098 0.194,-0.082 0.25,-0.082C0.288,-0.082 0.319,-0.09 0.341,-0.107C0.363,-0.125 0.375,-0.148 0.375,-0.178C0.375,-0.201 0.368,-0.221 0.354,-0.237C0.34,-0.253 0.313,-0.272 0.274,-0.294L0.226,-0.321C0.161,-0.358 0.115,-0.393 0.088,-0.426C0.062,-0.459 0.048,-0.498 0.048,-0.543C0.048,-0.603 0.07,-0.65 0.114,-0.687C0.158,-0.723 0.216,-0.741 0.288,-0.741C0.345,-0.741 0.41,-0.732 0.482,-0.716L0.482,-0.6C0.409,-0.628 0.35,-0.642 0.307,-0.642C0.274,-0.642 0.247,-0.634 0.227,-0.619C0.207,-0.605 0.197,-0.585 0.197,-0.561C0.197,-0.541 0.204,-0.524 0.218,-0.509C0.232,-0.494 0.259,-0.475 0.297,-0.454L0.349,-0.425C0.419,-0.386 0.467,-0.35 0.493,-0.317C0.52,-0.284 0.533,-0.244 0.533,-0.197C0.533,-0.13 0.508,-0.077 0.458,-0.039C0.408,-0.001 0.34,0.018 0.252,0.018C0.194,0.018 0.127,0.01 0.05,-0.006Z" style="fill:rgb(145,113,123);fill-rule:nonzero;"/>
                </g>
            </g>
            <g transform="matrix(1,0,0,1,105.78,-77.3016)">
                <text x="100.007px" y="239.516px" style="font-family:'Didot';font-size:12px;fill:white;">PROFF</text>
                <text x="100.007px" y="258.516px" style="font-family:'Didot';font-size:12px;fill:white;">BUTIK</text>
            </g>
        </g>
    </g>
</svg>
